<?xml version="1.0" standalone="no"?>
<!DOCTYPE svg PUBLIC "-//W3C//DTD SVG 20010904//EN"
 "http://www.w3.org/TR/2001/REC-SVG-20010904/DTD/svg10.dtd">
<svg version="1.0" xmlns="http://www.w3.org/2000/svg"
 width="1181.000000pt" height="1181.000000pt" viewBox="0 0 1181.000000 1181.000000"
 preserveAspectRatio="xMidYMid meet">
<metadata>
Created by potrace 1.14, written by Peter Selinger 2001-2017
</metadata>
<g transform="translate(0.000000,1181.000000) scale(0.100000,-0.100000)"
fill="#000000" stroke="none">
<path d="M0 5905 l0 -5905 5905 0 5905 0 0 5905 0 5905 -5905 0 -5905 0 0
-5905z m6158 4574 c1441 -103 2737 -896 3490 -2137 99 -162 261 -488 327 -657
496 -1263 393 -2673 -281 -3841 -185 -322 -406 -613 -678 -892 l-139 -142 40
-48 c151 -181 173 -218 173 -297 0 -70 -29 -127 -100 -196 -130 -127 -275
-151 -380 -62 -29 26 -164 177 -197 222 -1 2 -55 -31 -118 -73 -1485 -985
-3418 -982 -4899 6 -978 653 -1659 1663 -1891 2803 -172 846 -97 1714 220
2520 66 169 228 495 327 658 691 1140 1854 1912 3168 2101 306 44 640 57 938
35z m3664 -8642 c176 -85 282 -283 249 -464 -36 -197 -182 -343 -376 -376
-180 -31 -377 73 -462 244 -87 175 -48 392 94 520 98 89 188 121 324 116 85
-3 103 -8 171 -40z"/>
<path d="M5535 9469 c-1032 -96 -1978 -665 -2550 -1533 -792 -1205 -744 -2780
120 -3931 581 -774 1433 -1258 2391 -1360 179 -19 529 -19 708 0 513 54 984
213 1428 482 59 36 111 70 117 77 6 7 -190 250 -625 771 -349 418 -643 780
-655 805 -17 36 -20 57 -17 110 6 81 26 120 97 190 143 139 293 150 408 28 17
-18 309 -366 648 -773 339 -407 622 -740 628 -740 19 0 245 255 356 402 129
172 212 303 307 488 330 638 449 1358 344 2075 -185 1260 -1069 2321 -2282
2739 -239 82 -545 147 -808 171 -133 12 -483 11 -615 -1z"/>
</g>
</svg>
